<?xml version="1.0" standalone="no"?>
<!DOCTYPE svg PUBLIC "-//W3C//DTD SVG 20010904//EN"
 "http://www.w3.org/TR/2001/REC-SVG-20010904/DTD/svg10.dtd">
<svg version="1.0" xmlns="http://www.w3.org/2000/svg"
 width="1280.000000pt" height="691.000000pt" viewBox="0 0 1280.000000 691.000000"
 preserveAspectRatio="xMidYMid meet">

<g transform="translate(0.000000,691.000000) scale(0.100000,-0.100000)"
fill="#000000" stroke="none">
<path d="M7630 6394 c-120 -25 -149 -34 -260 -86 -175 -82 -251 -122 -276
-145 -13 -12 -41 -34 -61 -49 -32 -24 -109 -88 -135 -112 -25 -23 -58 -72 -58
-87 0 -9 -7 -23 -15 -31 -11 -12 -12 -18 -3 -28 18 -19 39 -15 50 10 6 12 23
28 39 34 16 7 28 15 27 19 -3 14 18 46 32 49 12 3 13 1 3 -9 -19 -19 -15 -33
5 -18 9 7 5 0 -10 -17 -36 -39 -36 -52 1 -22 15 14 75 47 133 76 57 28 110 58
118 66 7 10 17 13 24 8 16 -12 54 -13 61 -1 4 5 11 7 16 3 5 -3 16 -1 23 5 10
9 127 18 146 11 20 -7 129 -22 153 -22 9 1 17 -3 17 -9 0 -5 11 -9 24 -9 15 0
40 -16 66 -41 33 -33 46 -40 66 -35 17 5 24 2 24 -9 0 -11 11 -15 40 -15 29 0
40 -4 40 -15 0 -19 19 -19 40 0 14 13 24 12 86 -6 38 -11 89 -25 113 -30 25
-5 47 -13 50 -18 4 -5 20 -11 37 -15 17 -4 44 -20 62 -35 17 -16 44 -35 61
-42 17 -8 45 -31 63 -52 18 -21 56 -65 85 -97 63 -71 79 -101 88 -165 4 -28
14 -55 22 -62 8 -6 16 -17 17 -25 2 -7 6 -21 10 -30 4 -9 5 -21 2 -27 -4 -5
-1 -13 4 -16 6 -4 16 -19 21 -33 15 -38 21 -224 10 -255 -7 -18 -7 -28 0 -33
8 -4 8 -9 1 -13 -6 -3 -12 -29 -14 -56 -2 -28 -8 -57 -13 -65 -5 -8 -8 -27 -6
-42 1 -14 -3 -29 -9 -33 -5 -3 -8 -11 -4 -16 3 -6 1 -22 -4 -37 -6 -15 -13
-45 -17 -67 l-6 -40 27 39 c27 40 46 107 64 236 6 41 15 104 21 140 6 36 8 94
5 130 -4 36 -13 146 -20 245 -6 99 -18 194 -25 210 -12 30 -32 120 -29 133 4
16 -46 102 -98 167 -31 38 -61 83 -68 100 -7 16 -30 48 -50 69 -20 22 -36 43
-36 47 0 12 -84 88 -144 130 -63 43 -250 114 -343 129 -28 4 -57 11 -63 15
-23 14 -157 13 -230 -1z m-386 -188 c-10 -8 -21 -12 -24 -10 -5 6 21 24 34 24
6 0 1 -6 -10 -14z m1 -46 c4 -6 1 -9 -6 -8 -7 2 -22 -11 -33 -29 -15 -23 -26
-30 -40 -26 -14 4 -18 1 -13 -11 3 -8 2 -18 -4 -22 -6 -3 -8 -12 -5 -20 4 -12
2 -12 -15 -3 -11 6 -26 8 -33 6 -9 -4 -11 4 -8 25 3 21 1 29 -7 24 -6 -4 -11
-16 -11 -26 0 -10 -8 -24 -17 -29 -12 -7 -13 -11 -5 -11 7 0 21 -8 30 -17 16
-16 16 -16 -2 -10 -14 6 -17 4 -12 -8 3 -9 2 -14 -3 -10 -5 3 -12 -1 -14 -7
-3 -7 -4 1 -4 17 2 24 -2 30 -17 28 -17 -1 -16 2 6 20 14 12 29 35 35 51 6 19
16 30 31 31 17 1 19 -2 11 -16 -13 -24 -12 -49 1 -29 8 13 10 13 10 -2 0 -12
5 -15 15 -11 14 5 14 7 1 22 -14 15 -13 17 16 19 18 2 36 8 40 15 29 47 41 56
53 37z m5 -50 c0 -5 -2 -10 -4 -10 -3 0 -8 5 -11 10 -3 6 -1 10 4 10 6 0 11
-4 11 -10z m-60 -51 c0 -18 -18 -9 -23 12 -4 16 -3 18 9 8 8 -6 14 -15 14 -20z
m-186 -68 c-4 -3 -9 0 -11 7 -3 6 -10 9 -15 6 -7 -4 -8 -2 -4 5 6 9 11 9 22 0
8 -6 12 -15 8 -18z m28 7 c-7 -7 -12 -8 -12 -2 0 14 12 26 19 19 2 -3 -1 -11
-7 -17z m-112 -32 c0 -2 -7 -6 -15 -10 -8 -3 -15 -1 -15 4 0 6 7 10 15 10 8 0
15 -2 15 -4z m-10 -41 c-7 -9 -15 -13 -19 -10 -3 3 1 10 9 15 21 14 24 12 10
-5z"/>
<path d="M6904 5858 l-19 -23 23 19 c21 18 27 26 19 26 -2 0 -12 -10 -23 -22z"/>
<path d="M6774 5788 c-10 -12 -13 -18 -6 -14 7 4 12 2 13 -6 0 -7 5 -2 10 11
13 32 6 36 -17 9z"/>
<path d="M6811 5774 c0 -11 3 -14 6 -6 3 7 2 16 -1 19 -3 4 -6 -2 -5 -13z"/>
<path d="M7025 5629 c-29 -8 -28 -8 8 -6 26 2 37 -1 37 -11 0 -9 -11 -13 -32
-11 -36 2 -54 -3 -108 -31 -19 -9 -41 -15 -47 -13 -7 3 -13 0 -13 -6 0 -6 -7
-8 -15 -5 -18 7 -75 -14 -75 -27 0 -5 -5 -9 -11 -9 -8 0 -7 5 1 15 7 9 11 18
8 21 -3 2 -12 -6 -21 -18 -8 -13 -36 -45 -62 -72 -25 -26 -43 -51 -40 -55 4
-3 19 9 33 27 15 18 32 32 38 32 6 0 22 8 35 18 13 11 31 19 40 19 9 0 33 7
52 16 40 19 41 19 157 -44 77 -41 124 -81 112 -95 -4 -4 -2 -4 5 -1 18 11 56
-59 49 -88 -7 -28 -13 -29 -51 -15 -17 7 -24 7 -20 0 10 -16 -7 -12 -45 11
l-35 20 38 -36 c61 -60 48 -68 -49 -34 -47 17 -74 20 -134 15 -79 -5 -170 -30
-210 -57 -28 -18 -22 -49 9 -49 14 0 19 -5 14 -16 -4 -10 1 -17 16 -21 20 -5
24 -14 24 -55 0 -21 13 -24 20 -5 4 9 7 9 14 0 5 -7 26 -15 48 -18 72 -10 225
-13 225 -4 0 5 9 9 20 9 27 0 25 18 -2 23 -17 3 -14 5 10 6 18 0 32 -4 32 -10
0 -8 5 -8 15 1 8 7 24 10 36 7 12 -3 32 -1 46 6 25 11 28 35 8 80 -5 13 -2 17
12 17 11 0 40 19 66 43 31 28 57 43 78 44 17 1 37 8 45 14 8 6 20 9 29 6 8 -4
19 1 24 11 8 14 13 15 30 5 12 -7 37 -13 56 -13 20 0 60 -13 92 -30 74 -40 96
-59 83 -75 -6 -7 -6 -15 1 -22 5 -5 12 -23 15 -39 3 -16 9 -30 15 -32 5 -2 9
-12 9 -22 0 -10 6 -20 13 -23 8 -3 3 -12 -14 -28 -25 -23 -48 -66 -29 -54 5 3
32 -10 60 -30 27 -19 50 -30 50 -25 0 6 13 4 30 -5 17 -9 30 -20 30 -26 0 -7
-10 -5 -24 5 -25 16 -41 10 -28 -10 7 -10 108 -74 116 -74 3 0 26 -13 53 -29
54 -33 113 -49 113 -31 0 6 -7 13 -15 16 -8 4 -15 11 -15 16 0 6 7 8 15 4 8
-3 15 -2 15 2 0 4 36 7 80 6 44 -1 83 3 86 8 9 14 -34 74 -95 130 -55 52 -152
107 -189 109 -10 0 -12 3 -4 6 6 2 12 12 12 20 0 13 10 15 63 10 73 -8 60 9
-16 19 -34 5 -53 14 -67 32 -26 33 -25 40 8 72 28 27 32 27 133 25 109 -3 159
-11 159 -26 0 -14 78 -61 105 -65 21 -2 25 2 25 25 0 15 -7 36 -15 47 -8 10
-15 25 -15 32 -1 42 -128 168 -214 212 -100 51 -116 60 -116 68 0 5 -21 10
-47 11 -26 1 -54 8 -62 15 -15 13 -26 15 -91 16 -49 0 -60 -1 -60 -11 0 -5 -8
-9 -18 -9 -27 0 -79 -70 -67 -90 4 -6 -1 -10 -9 -10 -9 0 -16 6 -16 13 0 6 -5
4 -11 -5 -5 -10 -17 -18 -26 -18 -9 0 -26 -11 -39 -25 -29 -31 -58 -32 -88 -2
-13 13 -28 21 -34 19 -7 -2 -12 2 -12 8 0 7 -6 10 -14 7 -15 -6 -46 26 -46 49
0 12 -6 15 -23 10 -20 -5 -26 0 -37 29 -7 19 -17 32 -21 29 -4 -2 -10 2 -12 8
-4 10 -7 10 -15 0 -7 -10 -11 -10 -22 3 -7 8 -9 15 -4 15 16 1 -135 58 -171
64 -19 4 -35 11 -35 16 0 12 -22 11 -65 -1z m-170 -462 c6 -12 8 -32 5 -44
l-5 -23 -42 26 c-47 28 -55 39 -20 28 12 -3 19 -3 15 1 -7 7 19 34 32 35 3 0
10 -10 15 -23z m241 -28 c25 -27 8 -53 -37 -57 -32 -3 -33 -3 -16 15 9 11 17
29 17 41 0 28 12 28 36 1z m-329 -66 c-3 -3 -11 -2 -17 2 -9 6 -9 10 1 16 14
8 27 -7 16 -18z m67 8 c3 -4 3 -11 0 -14 -8 -7 -44 4 -44 14 0 12 37 12 44 0z
m46 -5 c0 -2 -7 -7 -16 -10 -8 -3 -12 -2 -9 4 6 10 25 14 25 6z m1062 -151
c-4 -48 -11 -54 -36 -29 -30 29 -12 68 34 73 3 1 4 -19 2 -44z m246 -80 c13
-13 21 -29 17 -35 -3 -5 -32 -10 -63 -10 l-56 0 34 35 c19 19 36 35 39 35 4 0
16 -11 29 -25z"/>
<path d="M6866 5582 c-2 -4 4 -8 15 -8 10 0 19 4 19 8 0 4 -6 8 -14 8 -8 0
-17 -4 -20 -8z"/>
<path d="M6805 5560 c-16 -7 -17 -9 -3 -9 9 -1 20 4 23 9 7 11 7 11 -20 0z"/>
<path d="M8430 5080 c0 -5 5 -10 11 -10 5 0 7 5 4 10 -3 6 -8 10 -11 10 -2 0
-4 -4 -4 -10z"/>
<path d="M6446 4935 c-7 -27 -9 -28 -16 -10 -8 18 -9 19 -9 1 -1 -14 -6 -17
-22 -13 -12 3 -18 3 -15 0 3 -4 -10 -21 -30 -39 -34 -29 -35 -32 -16 -38 14
-5 18 -13 15 -26 -8 -29 -31 -46 -45 -32 -34 34 -96 -10 -123 -88 -8 -25 -20
-54 -26 -65 -5 -12 -9 -48 -7 -80 l3 -60 23 45 c28 53 101 150 113 150 4 0 2
-18 -6 -41 -8 -22 -19 -58 -25 -81 -8 -27 -16 -38 -25 -34 -9 3 -12 0 -8 -10
3 -7 8 -14 12 -14 10 0 -7 -149 -20 -182 -6 -16 -15 -28 -20 -28 -5 0 -9 -8
-9 -18 0 -16 -40 -61 -40 -44 0 4 -6 -4 -13 -18 -18 -34 -10 -56 24 -71 52
-21 57 -49 46 -258 -4 -88 -6 -95 -35 -124 -27 -27 -37 -30 -78 -28 -26 1 -74
-7 -112 -20 -67 -22 -199 -82 -216 -100 -20 -19 -41 -7 -94 52 -30 33 -80 76
-111 96 -31 20 -81 57 -111 83 -78 66 -197 143 -210 135 -6 -3 -9 -1 -8 5 2 7
-14 23 -35 36 -34 22 -36 23 -25 4 7 -11 17 -20 21 -20 5 0 5 -9 2 -20 -4 -13
-2 -20 8 -20 7 0 20 -12 27 -27 8 -16 27 -40 42 -55 29 -28 29 -53 0 -61 -15
-4 -15 -5 1 -6 10 -1 17 -9 17 -21 0 -23 -10 -26 -29 -7 -10 10 -16 8 -28 -10
-9 -13 -22 -23 -30 -23 -7 0 -17 -8 -20 -17 -8 -21 -28 -43 -39 -43 -4 0 -18
-10 -31 -22 l-23 -21 0 23 0 24 -21 -21 -22 -21 -24 29 c-45 53 -55 39 -41
-55 2 -14 -4 -21 -22 -26 -14 -3 -25 -13 -25 -21 0 -8 -7 -23 -17 -32 -9 -10
-14 -25 -11 -37 3 -12 -1 -22 -11 -26 -9 -3 -13 -10 -10 -15 3 -5 0 -9 -6 -9
-6 0 -17 -15 -25 -34 -10 -24 -26 -38 -55 -50 -47 -19 -91 -21 -107 -5 -8 8
-17 7 -34 -5 -13 -9 -28 -16 -34 -16 -5 0 -4 4 3 9 10 6 10 10 -1 20 -11 9
-17 8 -27 -4 -7 -8 -20 -15 -29 -16 -9 0 -11 -3 -4 -5 7 -3 9 -12 6 -20 -3 -9
1 -14 12 -14 13 0 16 -6 11 -25 -5 -18 -2 -25 8 -25 7 0 16 8 19 19 4 16 25
21 57 12 3 0 -7 -12 -22 -25 -16 -13 -28 -28 -28 -35 0 -16 8 -14 37 9 14 11
29 17 33 15 5 -3 11 -1 15 5 9 14 53 12 58 -2 3 -10 7 -10 20 0 9 8 13 20 10
30 -6 14 -5 15 9 2 16 -15 8 -50 -12 -50 -6 0 -10 -6 -10 -13 0 -24 -31 -77
-42 -71 -6 4 -6 10 1 17 6 6 11 16 11 22 -1 21 -30 -30 -30 -53 0 -34 37 -83
57 -75 13 5 14 3 4 -15 -6 -11 -11 -28 -11 -38 0 -9 -12 -33 -26 -51 -19 -26
-23 -38 -15 -46 15 -15 14 -56 -3 -73 -11 -11 -12 -22 -5 -49 12 -43 15 -161
6 -240 -4 -33 -9 -82 -12 -110 -6 -57 -32 -142 -46 -150 -5 -4 -9 -16 -9 -28
0 -16 -3 -18 -9 -8 -6 10 -13 10 -29 2 -16 -8 -21 -7 -26 7 -3 9 -15 33 -27
52 -12 19 -27 51 -34 71 -8 20 -36 83 -63 140 -27 57 -49 106 -49 109 0 3 -11
23 -24 45 -35 56 -53 98 -50 114 1 7 -1 11 -6 8 -4 -3 -13 1 -20 8 -10 11 -10
15 0 18 8 3 4 11 -11 22 -12 9 -21 22 -20 28 2 7 -9 28 -23 47 -37 50 -136
261 -159 340 -8 25 -22 54 -32 66 -16 18 -17 23 -4 33 8 7 24 10 36 6 11 -4
20 -2 20 4 0 6 6 11 13 11 7 0 18 9 24 19 10 16 9 24 -8 45 -20 25 -59 36 -59
16 0 -5 -7 -10 -16 -10 -9 0 -12 5 -8 12 4 7 3 8 -4 4 -7 -4 -12 -14 -12 -23
0 -9 -3 -13 -6 -10 -9 8 16 67 27 67 5 0 9 -5 9 -12 0 -22 19 6 24 36 3 17 13
34 23 40 16 9 16 11 -7 17 l-25 6 28 11 c15 6 27 16 27 21 0 5 10 13 23 17 24
7 37 22 37 42 0 9 -7 11 -21 7 -18 -6 -20 -4 -15 17 3 12 3 17 0 11 -3 -7 -10
-13 -15 -13 -17 0 23 63 65 104 22 22 40 46 38 54 -2 10 2 13 13 8 10 -4 14
-2 9 6 -4 6 17 35 50 67 31 31 87 88 125 126 37 39 79 79 94 90 14 11 26 25
27 31 0 5 20 23 45 39 28 17 41 31 35 35 -8 5 -7 9 3 13 18 7 46 -21 31 -31
-9 -6 -10 -14 -6 -49 1 -7 13 -13 26 -13 14 0 28 -4 31 -10 13 -21 27 -10 21
16 -7 26 -6 26 26 20 42 -8 118 -45 118 -57 0 -5 6 -9 13 -9 6 0 24 -7 40 -14
15 -8 27 -11 27 -6 0 5 -13 16 -29 25 -17 8 -49 28 -73 44 -24 15 -87 52 -142
81 -73 39 -100 50 -106 40 -9 -14 -30 -5 -30 14 0 12 -60 46 -80 46 -21 0 -9
-20 13 -21 15 -1 17 -3 5 -6 -9 -2 -35 5 -57 16 -33 17 -44 19 -66 9 -14 -6
-25 -16 -25 -21 0 -6 -18 -7 -42 -4 -23 3 -37 2 -31 -1 17 -11 1 -32 -28 -37
-13 -3 -29 -10 -34 -17 -17 -22 -53 -38 -70 -32 -8 3 -15 1 -15 -5 0 -6 -8
-11 -17 -11 -15 0 -16 2 -3 10 13 8 12 10 -2 10 -10 0 -18 -4 -18 -8 0 -5 -19
-19 -42 -32 -24 -13 -46 -28 -49 -33 -4 -6 -25 -1 -51 12 -24 11 -49 21 -55
21 -6 0 -13 5 -15 10 -2 7 -25 5 -62 -5 -135 -35 -331 -140 -448 -239 -35 -29
-74 -59 -86 -65 -13 -7 -21 -15 -18 -18 8 -8 -69 -61 -100 -69 -19 -5 -25 -4
-20 5 10 15 1 14 -34 -4 -32 -17 -41 -31 -13 -21 15 6 15 5 -1 -13 -19 -21
-56 -34 -56 -20 0 5 5 9 12 9 6 0 8 3 5 6 -10 11 -37 -17 -37 -37 0 -21 -16
-26 -22 -8 -3 8 -19 2 -46 -16 -23 -15 -39 -31 -36 -36 3 -5 -1 -7 -8 -4 -7 3
-36 -15 -63 -41 -28 -25 -44 -42 -36 -38 9 5 12 3 7 -5 -4 -6 -11 -9 -15 -7
-4 3 -27 -11 -50 -30 -33 -26 -54 -34 -85 -35 -100 -2 -166 -25 -222 -76 -21
-20 -76 -60 -122 -90 -45 -29 -92 -63 -103 -74 -11 -11 -44 -35 -72 -52 -71
-43 -247 -167 -247 -174 0 -3 7 -3 15 1 22 8 18 -2 -6 -15 -15 -8 -19 -8 -15
0 11 17 -6 13 -39 -9 -16 -12 -43 -27 -60 -35 -41 -20 -55 -29 -168 -113 -88
-65 -113 -78 -250 -127 -163 -58 -366 -137 -487 -190 -41 -18 -111 -47 -155
-65 -168 -68 -313 -133 -383 -172 l-72 -40 -68 12 c-160 26 -248 40 -264 40
-17 0 -18 -63 -18 -1190 l0 -1190 469 0 469 0 56 25 c58 26 67 24 39 -7 -16
-17 35 -18 1610 -18 1620 0 1627 0 1627 20 0 11 6 20 13 20 7 1 5 6 -5 14 -24
18 -23 26 3 26 17 0 19 3 10 14 -9 11 -8 15 5 20 11 4 14 13 10 29 -3 12 -1
29 4 37 5 8 10 11 10 7 0 -4 9 -3 20 3 16 9 18 8 14 -5 -5 -11 1 -15 21 -15
14 0 24 4 21 8 -2 4 7 9 20 10 14 1 23 -2 19 -7 -3 -5 1 -11 7 -14 11 -3 11
-9 0 -26 -7 -11 -9 -21 -5 -21 14 1 43 27 43 38 0 6 6 12 13 15 9 3 9 8 1 17
-8 8 -14 9 -18 1 -12 -19 -22 -12 -24 16 -1 14 5 35 15 45 16 18 15 18 -26 14
-23 -2 -44 -6 -48 -10 -11 -10 -47 -6 -73 9 -14 8 -19 14 -12 15 6 0 12 8 12
18 0 9 9 23 20 30 12 7 18 18 14 24 -4 6 4 19 16 28 l24 18 -28 -5 -27 -6 28
29 c21 22 29 26 34 15 4 -12 7 -11 12 2 3 9 15 17 26 17 14 0 19 5 15 15 -4 8
-1 22 5 29 9 11 9 15 -1 18 -8 3 -5 9 10 17 15 8 22 21 22 41 0 20 5 30 15 30
16 0 37 63 23 68 -4 2 -8 24 -8 48 0 28 4 43 10 39 6 -3 10 3 10 14 0 11 5 23
10 26 6 3 10 11 10 16 0 6 -4 7 -10 4 -5 -3 -10 -1 -10 5 0 20 24 4 32 -21 6
-18 7 -15 4 13 -4 32 -1 38 26 51 19 9 26 17 18 22 -6 4 -20 -1 -31 -11 -10
-9 -22 -14 -26 -11 -3 4 -1 7 5 7 6 0 13 9 17 19 3 11 15 23 26 26 16 5 18 10
8 21 -9 11 -8 14 3 14 10 0 15 11 16 29 0 25 -4 30 -26 33 -23 3 -27 8 -30 40
-3 35 -1 38 22 38 14 0 26 5 26 11 0 6 9 23 19 38 11 15 18 36 16 47 -2 10 -4
23 -4 27 -1 5 -5 5 -11 2 -17 -10 -11 47 7 67 10 12 12 18 4 18 -7 0 -9 5 -6
11 4 6 0 9 -10 7 -10 -2 -20 2 -22 9 -3 9 6 10 33 6 27 -4 35 -3 30 5 -4 7
-14 12 -22 12 -13 0 -13 3 0 22 19 26 20 38 5 38 -5 0 -8 -4 -4 -9 3 -5 2 -12
-3 -15 -4 -2 -8 4 -9 14 -2 21 24 29 94 32 32 1 43 6 46 20 3 11 -1 22 -9 25
-18 7 -18 23 1 23 9 0 12 6 9 15 -4 8 0 23 7 33 7 9 9 14 5 10 -5 -4 -15 -3
-23 3 -10 9 -13 7 -13 -7 0 -11 -5 -26 -11 -34 -9 -12 -10 -10 -6 8 5 21 3 23
-18 18 -18 -5 -24 -1 -28 16 -4 12 -1 29 6 37 7 8 12 42 12 75 0 55 2 61 20
58 20 -3 20 -2 0 15 -20 17 -40 53 -30 53 9 0 40 -35 80 -90 22 -30 49 -66 61
-80 128 -150 135 -160 124 -179 -11 -21 -3 -54 11 -45 5 3 9 10 9 15 0 6 -4 7
-10 4 -12 -7 -13 5 -1 23 13 21 24 3 86 -145 25 -60 16 -124 -24 -171 -17 -20
-55 -84 -85 -142 -30 -58 -81 -154 -113 -215 -33 -60 -79 -146 -103 -190 -24
-44 -75 -134 -115 -200 -40 -66 -87 -147 -105 -180 -18 -33 -43 -74 -56 -92
-13 -17 -24 -35 -24 -40 0 -4 -9 -19 -20 -33 -11 -14 -20 -28 -20 -33 0 -4
573 -7 1274 -7 l1275 0 -6 38 -6 37 27 -24 c14 -14 26 -30 26 -38 0 -7 9 -13
20 -13 11 0 20 6 20 13 0 8 -9 24 -20 37 -11 13 -20 31 -20 41 0 19 33 43 44
32 3 -3 6 3 6 15 0 43 39 39 56 -6 8 -19 7 -33 0 -45 -13 -21 5 -43 28 -34 19
8 21 46 3 53 -8 3 -11 17 -9 39 2 19 0 35 -6 35 -6 0 -6 16 0 45 12 55 6 75
-20 68 -14 -3 -18 -11 -15 -24 4 -13 0 -19 -11 -19 -14 0 -21 11 -17 32 0 5
-3 8 -8 8 -5 0 -11 6 -14 13 -2 6 -2 2 0 -10 2 -13 -1 -23 -6 -23 -12 0 -22
44 -15 64 6 16 -10 23 -19 9 -2 -5 -2 -2 0 5 1 8 3 22 3 33 0 11 7 19 16 19 9
0 14 6 11 13 -2 6 -10 11 -16 10 -17 -4 -13 14 4 21 19 7 20 56 1 81 -10 15
-11 23 -2 38 8 15 8 21 -1 24 -20 7 -15 48 7 68 11 10 20 24 20 31 0 7 6 15
13 18 6 3 2 3 -10 0 -26 -6 -32 13 -8 22 9 4 15 19 15 35 0 16 4 29 9 29 8 0
11 11 27 93 4 17 15 44 25 58 22 31 32 70 32 123 0 26 6 45 16 53 15 11 17 15
20 49 0 8 6 12 11 9 6 -3 10 1 10 11 0 9 8 24 18 33 16 15 19 22 28 65 5 27
14 33 24 16 8 -13 10 -12 10 3 0 9 -6 17 -14 17 -12 0 -14 19 -7 74 1 4 8 6
16 2 17 -6 19 2 35 109 6 38 16 72 22 76 6 4 12 30 13 58 1 29 6 55 10 59 4 4
5 -6 1 -23 -6 -28 -4 -27 13 8 11 21 21 48 23 60 2 15 10 22 28 24 43 2 45 3
31 12 -11 7 -9 10 8 16 25 8 26 14 5 43 -15 21 -8 30 12 15 5 -5 -3 4 -18 19
-15 15 -28 30 -28 32 0 15 66 -32 100 -71 22 -25 40 -42 40 -38 0 4 -23 34
-52 67 -45 52 -51 64 -50 100 1 23 7 47 13 54 6 8 9 34 7 59 -2 25 1 45 6 45
4 0 3 6 -3 14 -7 8 -11 31 -11 53 3 65 -15 242 -25 252 -3 2 -5 -36 -5 -85 0
-49 -7 -128 -15 -175 -17 -104 -55 -249 -66 -249 -4 0 -4 12 0 28 4 15 6 33 4
40 -3 6 0 12 6 12 5 0 10 8 9 18 0 9 12 71 26 137 22 98 26 138 22 215 -5 117
-14 188 -30 243 l-12 41 -44 -69 c-67 -106 -109 -144 -205 -181 -11 -4 -23 -6
-27 -6 -5 1 -8 -5 -8 -13 0 -8 -6 -15 -13 -15 -8 0 -22 -9 -32 -20 -10 -11
-20 -18 -23 -16 -2 3 -22 -6 -43 -20 -21 -13 -40 -24 -43 -24 -2 0 -18 -12
-35 -27 -32 -28 -68 -37 -88 -21 -15 12 -39 -4 -76 -48 -16 -19 -23 -34 -17
-40 6 -6 2 -16 -10 -27 -19 -16 -21 -16 -40 3 -11 11 -17 26 -14 35 4 8 1 15
-5 15 -6 0 -8 6 -5 13 3 9 16 12 34 9 34 -5 36 -1 43 81 4 45 3 57 -9 57 -10
0 -14 12 -14 38 0 28 3 33 10 22 8 -11 9 -9 5 10 -10 41 31 120 61 120 6 0 11
14 12 31 0 17 9 37 19 44 14 11 16 16 6 26 -18 18 -16 32 3 25 9 -3 12 -2 9 5
-4 6 2 13 14 16 12 3 21 13 21 23 0 10 7 25 15 34 8 8 15 20 15 27 0 17 31 38
58 39 12 0 22 6 22 14 0 8 23 34 51 58 67 57 66 56 92 107 12 25 30 50 41 55
10 6 32 24 49 39 24 22 28 30 17 37 -16 10 -22 30 -25 84 -2 33 -7 42 -36 56
-31 16 -32 18 -11 24 30 10 28 28 -2 20 -26 -6 -46 13 -26 26 9 5 9 9 1 14 -6
4 -11 4 -12 -1 -1 -16 -22 43 -24 68 -3 26 -36 69 -55 69 -5 0 -12 16 -16 36
-4 23 -11 33 -19 30 -18 -7 -24 14 -18 62 5 37 8 40 41 46 20 3 41 1 46 -3 13
-10 130 -41 156 -41 10 0 21 -7 24 -15 5 -13 10 -14 26 -5 27 15 41 51 27 69
-8 10 -7 16 4 25 11 8 13 20 6 51 -4 22 -8 52 -7 66 0 20 -6 28 -25 33 -14 4
-25 11 -25 16 0 6 -10 10 -22 10 -12 0 -18 3 -15 7 4 3 0 17 -8 30 -9 13 -13
28 -10 33 3 5 1 11 -5 15 -5 3 -10 0 -10 -7 -1 -7 -8 -1 -16 15 -8 15 -21 27
-29 27 -8 0 -15 5 -15 10 0 6 -11 10 -25 10 -14 0 -25 4 -25 8 0 13 45 52 59
52 19 0 41 -26 41 -50 0 -17 2 -19 14 -8 8 7 13 17 13 23 -3 15 38 17 96 5 40
-8 57 -17 70 -38 18 -27 18 -27 11 -2 -5 21 2 16 42 -25 27 -27 47 -56 46 -62
-2 -7 3 -13 10 -14 7 0 39 -2 70 -4 48 -3 56 -2 45 9 -6 8 -15 12 -19 10 -3
-2 -10 10 -13 28 -4 18 -11 38 -15 43 -5 6 -16 34 -25 62 -15 47 -19 51 -36
42 -10 -5 -19 -15 -19 -21 0 -6 -3 -9 -6 -5 -4 3 3 18 15 33 13 16 18 31 12
38 -4 6 -11 18 -14 26 -4 8 -5 2 -4 -14 2 -34 -18 -46 -26 -16 -4 17 -10 20
-27 15 -16 -5 -23 -2 -27 13 -3 14 -13 19 -31 18 -15 0 -28 4 -30 9 -2 6 -10
14 -18 18 -8 4 -14 14 -14 22 0 7 -5 15 -10 17 -6 2 -12 13 -12 24 -2 18 -5
20 -21 10 -42 -25 -64 80 -22 110 22 16 19 22 -17 29 -18 4 -36 12 -39 17 -11
18 -82 28 -111 17 -27 -11 -38 -29 -18 -29 6 0 10 -7 10 -14 0 -14 -24 -31
-77 -55 -13 -6 -23 -14 -23 -19 0 -4 -17 -9 -37 -10 -20 -2 -42 -7 -48 -11
-25 -20 -61 -20 -78 -1 -24 28 -22 35 22 78 21 20 50 53 65 74 25 34 31 36 99
43 40 3 93 13 119 21 76 24 128 23 166 -6 22 -16 45 -24 72 -24 22 0 40 -3 40
-8 0 -4 6 -8 13 -8 7 0 35 -20 62 -45 56 -52 102 -69 125 -49 9 7 26 11 38 7
13 -3 22 -1 22 6 0 7 -4 9 -10 6 -5 -3 -10 3 -10 14 0 12 -4 21 -8 21 -4 0 -9
21 -10 48 -2 58 -19 101 -49 127 -13 11 -23 26 -23 33 0 7 -11 17 -24 24 -20
8 -32 7 -61 -6 -32 -15 -37 -16 -51 -2 -8 9 -12 16 -8 16 4 0 -10 11 -30 25
-20 14 -43 25 -49 25 -7 0 -18 5 -25 12 -7 7 -12 9 -12 6 0 -4 -15 -2 -32 4
-71 22 -147 4 -218 -52 -45 -35 -50 -36 -50 -10 0 11 -3 20 -6 20 -15 0 -44
-22 -44 -34 0 -8 -7 -19 -15 -26 -8 -7 -15 -19 -15 -28 0 -19 -47 -82 -62 -82
-6 0 -18 -9 -28 -20 -13 -16 -25 -19 -49 -14 -18 4 -28 10 -23 13 6 3 12 17
13 31 3 20 -1 26 -19 28 -16 3 -22 8 -18 19 3 8 6 17 6 19 0 2 11 4 24 4 28 0
37 17 24 43 -6 12 -5 17 6 17 8 0 17 6 19 13 4 10 6 10 6 0 1 -7 6 -13 11 -13
7 0 7 6 0 19 -15 29 -12 61 5 61 16 0 20 27 7 47 -11 17 -102 30 -102 14 0 -6
-10 -11 -22 -11 -12 0 -61 -5 -110 -11 -75 -10 -88 -14 -88 -30 0 -29 -19 -23
-26 9 -4 15 -11 33 -17 40 -5 6 -6 12 -1 12 5 0 2 5 -6 10 -10 6 -3 8 23 3
l37 -6 0 40 c0 27 -6 46 -20 58 -19 17 -20 17 -21 -1 -1 -11 -4 -6 -8 11 l-7
30 -8 -30z m-46 -49 c0 -3 -4 -8 -10 -11 -5 -3 -10 -1 -10 4 0 6 5 11 10 11 6
0 10 -2 10 -4z m240 -171 c0 -18 -5 -25 -19 -25 -11 0 -23 -4 -26 -10 -4 -6 5
-10 19 -10 39 0 31 -17 -10 -25 -27 -5 -41 -2 -53 9 -14 15 -13 16 9 17 14 0
19 3 13 6 -25 10 -13 39 20 50 47 15 47 15 47 -12z m95 -35 c3 -5 1 -10 -4
-10 -6 0 -11 5 -11 10 0 6 2 10 4 10 3 0 8 -4 11 -10z m-424 -43 c-10 -9 -11
-8 -5 6 3 10 9 15 12 12 3 -3 0 -11 -7 -18z m344 -7 c3 -5 1 -10 -4 -10 -6 0
-11 5 -11 10 0 6 2 10 4 10 3 0 8 -4 11 -10z m745 0 c0 -5 -5 -10 -11 -10 -5
0 -7 5 -4 10 3 6 8 10 11 10 2 0 4 -4 4 -10z m-270 -220 c0 -5 -12 -10 -26
-10 -14 0 -23 4 -19 10 3 6 15 10 26 10 10 0 19 -4 19 -10z m-2552 -141 c-3
-8 -7 -3 -11 10 -4 17 -3 21 5 13 5 -5 8 -16 6 -23z m2246 -125 c11 -30 6 -37
-14 -19 -11 10 -20 22 -20 27 0 15 28 9 34 -8z m82 -13 c0 -11 -8 -16 -23 -15
-27 1 -37 9 -29 22 10 17 52 11 52 -7z m172 -66 c12 2 27 7 32 10 19 12 10
-14 -16 -44 -25 -30 -26 -30 -46 -12 -14 14 -18 26 -13 41 4 14 10 18 14 12 4
-7 17 -10 29 -7z m-3544 -24 c-17 -4 -37 -11 -45 -15 -8 -4 -5 0 5 8 11 9 31
16 45 15 24 -1 24 -2 -5 -8z m-70 -58 c-10 -10 -20 -18 -23 -18 -3 0 -21 -11
-39 -24 -18 -13 -36 -20 -40 -16 -4 3 0 10 8 15 8 5 30 20 49 34 41 30 73 36
45 9z m706 -307 c0 -8 -7 -16 -15 -20 -13 -4 -14 -2 -5 14 13 23 20 26 20 6z
m-1240 -15 c0 -5 -7 -12 -16 -15 -14 -5 -15 -4 -4 9 14 17 20 19 20 6z m2975
-1 c-3 -5 -12 -10 -18 -10 -7 0 -6 4 3 10 19 12 23 12 15 0z m1235 -10 c0 -5
-4 -10 -10 -10 -5 0 -10 5 -10 10 0 6 5 10 10 10 6 0 10 -4 10 -10z m-1325
-40 c-3 -5 -12 -10 -18 -10 -7 0 -6 4 3 10 19 12 23 12 15 0z m-801 -492 c-4
-13 -7 -29 -7 -35 0 -7 -4 -13 -8 -13 -4 0 -9 6 -12 13 -3 9 -7 9 -20 -1 -14
-12 -16 -10 -15 18 1 26 5 31 20 27 10 -3 18 -1 18 4 0 5 7 9 16 9 11 0 14 -6
8 -22z m132 -5 c-14 -14 -23 -29 -20 -34 3 -5 -3 -6 -12 -2 -10 4 -13 8 -7 10
5 2 8 14 6 26 -4 19 1 22 27 24 l32 2 -26 -26z m-3116 -3 c0 -5 -5 -10 -11
-10 -5 0 -7 5 -4 10 3 6 8 10 11 10 2 0 4 -4 4 -10z m3060 -4 c0 -1 -11 -16
-25 -32 -50 -57 -50 -57 -37 -62 7 -2 12 -8 12 -14 0 -6 -8 -7 -17 -4 -11 5
-24 -2 -40 -20 -14 -17 -23 -22 -23 -13 -1 10 -4 9 -11 -4 -8 -13 -6 -21 6
-33 15 -15 17 -15 31 4 8 12 22 29 32 38 18 18 16 21 39 -76 7 -32 22 -50 48
-60 17 -7 17 -9 3 -9 -20 -1 -24 -26 -7 -36 5 -4 8 -12 6 -18 -2 -7 6 -17 17
-22 18 -9 21 -19 18 -63 -2 -34 0 -52 8 -52 6 0 10 -10 8 -22 -2 -13 5 -31 15
-40 9 -10 17 -28 17 -40 0 -18 2 -20 9 -9 8 12 12 12 24 2 12 -9 16 -9 19 1 4
10 8 10 21 -1 20 -16 24 -66 5 -55 -10 6 -10 4 0 -7 6 -7 12 -21 12 -31 0 -19
34 -25 45 -8 9 15 42 12 49 -5 8 -22 37 -18 70 9 25 21 62 26 53 7 -2 -3 5
-14 16 -25 20 -19 20 -18 14 20 -3 22 -3 30 0 20 4 -15 7 -16 13 -5 5 7 13 10
17 5 4 -5 2 -11 -4 -13 -7 -3 -13 -14 -13 -25 0 -17 3 -18 15 -8 8 7 13 15 11
19 -3 4 -1 13 5 21 17 28 10 -32 -16 -125 -48 -173 -93 -351 -130 -510 -36
-157 -38 -162 -100 -255 -35 -52 -74 -118 -87 -145 -31 -66 -108 -204 -118
-210 -4 -3 -6 13 -3 35 4 28 -1 52 -16 85 -11 24 -21 49 -21 55 0 13 -50 103
-64 115 -6 6 -36 39 -66 75 -30 35 -63 73 -73 85 -10 11 -27 35 -38 53 -12 17
-24 32 -29 32 -5 0 -12 9 -15 21 -4 11 -20 36 -37 55 -17 19 -28 34 -24 34 3
0 -5 10 -17 23 -12 13 -26 21 -31 19 -5 -3 -7 2 -3 11 4 11 1 17 -8 17 -25 0
-24 66 2 145 9 27 18 63 19 78 2 16 11 50 20 75 9 26 18 56 20 67 11 61 28
121 35 130 4 6 10 39 14 75 4 36 13 83 21 105 7 22 14 54 14 72 0 17 7 38 15
47 9 8 14 19 13 23 -4 15 13 116 23 134 5 10 11 35 13 56 9 89 17 114 36 108
14 -5 17 -2 13 13 -5 22 27 35 62 26 13 -3 27 1 34 10 8 9 21 16 30 17 12 0
11 2 -4 9 -18 8 -17 9 8 9 15 1 27 -1 27 -3z m-170 -36 c0 -5 -2 -10 -4 -10
-3 0 -8 5 -11 10 -3 6 -1 10 4 10 6 0 11 -4 11 -10z m1464 -137 c4 -32 11 -83
16 -113 5 -30 16 -122 25 -204 8 -81 24 -173 35 -204 11 -31 22 -76 25 -101 2
-25 10 -90 16 -143 7 -57 8 -113 3 -135 -9 -41 -8 -43 -29 212 -5 54 -18 118
-33 160 -37 103 -42 129 -47 255 -5 101 -20 261 -30 313 -2 9 0 17 5 17 4 0
10 -26 14 -57z m-1935 -363 c17 -33 27 -60 23 -60 -4 0 -13 12 -19 28 -7 15
-19 42 -27 60 -26 55 -9 35 23 -28z m1935 34 c3 -8 2 -12 -4 -9 -6 3 -10 10
-10 16 0 14 7 11 14 -7z m-981 -71 c-7 -2 -19 -2 -25 0 -7 3 -2 5 12 5 14 0
19 -2 13 -5z m15 -51 c8 -15 15 -31 18 -37 2 -5 -9 -10 -26 -11 -16 -1 -30 3
-30 9 0 5 -7 7 -15 4 -25 -10 -28 14 -4 39 29 31 41 30 57 -4z m-928 -2 c6
-11 8 -20 6 -20 -3 0 -10 9 -16 20 -6 11 -8 20 -6 20 3 0 10 -9 16 -20z m2792
-456 c-66 -133 -171 -306 -195 -321 -12 -7 -8 0 37 67 37 55 105 173 148 261
18 36 34 62 36 58 2 -4 -10 -33 -26 -65z m-1661 -79 c-9 -30 -9 -30 -10 10 -1
25 2 36 9 29 6 -6 6 -21 1 -39z m882 -47 c4 -41 11 -64 21 -70 22 -12 20 -27
-3 -21 -10 3 -22 0 -25 -6 -5 -7 5 -11 28 -11 19 0 38 -5 41 -10 3 -6 17 -7
31 -4 21 5 24 3 24 -19 0 -13 7 -30 15 -37 21 -17 19 -47 -4 -66 -11 -10 -16
-24 -14 -35 4 -13 0 -19 -11 -19 -9 0 -20 -8 -23 -17 -10 -25 -30 -44 -50 -47
-19 -3 -38 -66 -20 -66 6 0 8 -3 4 -6 -3 -4 -38 10 -77 29 -38 20 -70 33 -70
30 0 -4 -5 -2 -11 4 -9 9 -6 25 9 65 74 187 103 272 109 317 3 28 9 51 13 51
4 0 10 -28 13 -62z m862 -17 c-8 -39 -24 -50 -18 -13 7 40 13 56 19 49 3 -3 3
-19 -1 -36z m-2661 -70 c-3 -3 -15 6 -26 22 -11 15 -25 24 -30 21 -7 -5 -8 -2
-3 5 5 9 15 5 36 -15 16 -15 26 -30 23 -33z m2600 -82 c-20 -52 -40 -103 -44
-114 -5 -11 -16 -41 -26 -68 -9 -26 -18 -46 -20 -44 -4 4 49 167 64 193 6 12
9 24 5 27 -3 4 0 13 7 22 7 8 11 32 8 54 -2 28 0 37 9 34 7 -3 13 1 13 8 1 10
3 9 10 -2 7 -12 0 -43 -26 -110z m-44 11 c0 -5 -4 -10 -10 -10 -5 0 -10 5 -10
10 0 6 5 10 10 10 6 0 10 -4 10 -10z m-186 -62 c-4 -7 -21 -31 -38 -53 -16
-22 -31 -42 -33 -44 -2 -2 -5 -2 -8 1 -5 5 72 108 81 108 3 0 2 -6 -2 -12z
m-90 -120 c-39 -68 -82 -112 -138 -140 -33 -17 -77 -42 -96 -56 -30 -21 -29
-19 9 17 23 22 66 52 95 66 35 17 64 42 89 75 34 46 58 68 41 38z m-900 -49
c36 -28 36 -78 -1 -118 -37 -40 -70 -46 -110 -21 -41 25 -41 45 -2 109 36 58
67 66 113 30z m-130 -24 c-9 -14 -18 -25 -21 -25 -5 0 5 18 20 38 17 22 18 13
1 -13z m-1219 -25 c3 -5 1 -10 -4 -10 -6 0 -11 5 -11 10 0 6 2 10 4 10 3 0 8
-4 11 -10z m2448 -72 c-19 -75 -22 -80 -16 -23 5 41 17 75 28 75 1 0 -4 -24
-12 -52z m-78 -28 c-3 -5 -1 -10 4 -10 6 0 11 6 11 13 0 6 5 4 11 -7 9 -14 8
-20 -2 -27 -13 -8 -6 -13 14 -10 4 0 6 -2 5 -6 0 -5 2 -16 7 -26 4 -10 3 -28
-3 -40 -11 -22 -11 -22 -11 -1 -1 12 -12 42 -25 67 -14 25 -22 48 -19 51 10
10 15 7 8 -4z m-2488 -366 c-3 -3 -12 -4 -19 -1 -8 3 -5 6 6 6 11 1 17 -2 13
-5z m-52 -83 c3 -5 1 -12 -5 -16 -5 -3 -10 1 -10 9 0 18 6 21 15 7z m-55 -251
c0 -5 -2 -10 -4 -10 -3 0 -8 5 -11 10 -3 6 -1 10 4 10 6 0 11 -4 11 -10z m0
-24 c0 -3 -4 -8 -10 -11 -5 -3 -10 -1 -10 4 0 6 5 11 10 11 6 0 10 -2 10 -4z
m2455 -366 c-3 -6 3 -10 14 -10 11 0 27 -7 35 -16 19 -18 21 -48 4 -41 -7 2
-12 9 -11 15 2 6 -3 9 -10 7 -21 -8 -36 10 -42 50 -4 31 -3 36 5 22 6 -9 8
-22 5 -27z m-1825 -10 c0 -5 -4 -10 -9 -10 -6 0 -13 5 -16 10 -3 6 1 10 9 10
9 0 16 -4 16 -10z"/>
<path d="M5345 2380 c-3 -5 -1 -10 4 -10 6 0 11 5 11 10 0 6 -2 10 -4 10 -3 0
-8 -4 -11 -10z"/>
<path d="M6010 1470 c0 -11 -7 -20 -15 -20 -8 0 -15 -7 -15 -16 0 -9 6 -14 13
-11 6 2 17 -3 24 -12 17 -23 22 -11 16 37 -6 42 -23 59 -23 22z"/>
<path d="M6040 1450 c0 -5 7 -10 15 -10 8 0 15 5 15 10 0 6 -7 10 -15 10 -8 0
-15 -4 -15 -10z"/>
<path d="M6545 4930 c3 -5 8 -10 11 -10 2 0 4 5 4 10 0 6 -5 10 -11 10 -5 0
-7 -4 -4 -10z"/>
<path d="M6570 4867 c0 -19 32 -47 53 -47 10 0 17 8 17 19 0 22 -4 26 -42 35
-20 5 -28 3 -28 -7z"/>
<path d="M7681 4503 c-1 -6 -4 -20 -7 -30 -5 -17 -5 -17 6 0 6 10 9 23 6 30
-3 9 -5 9 -5 0z"/>
<path d="M4365 4410 c-3 -6 1 -7 9 -4 18 7 21 14 7 14 -6 0 -13 -4 -16 -10z"/>
<path d="M7018 4403 c7 -3 16 -2 19 1 4 3 -2 6 -13 5 -11 0 -14 -3 -6 -6z"/>
<path d="M4295 4380 c-3 -6 1 -7 9 -4 18 7 21 14 7 14 -6 0 -13 -4 -16 -10z"/>
<path d="M7300 4381 c0 -8 52 -23 59 -16 1 2 0 8 -4 14 -8 13 -55 15 -55 2z"/>
<path d="M6159 4338 c11 -29 27 -34 34 -9 6 24 0 31 -24 31 -15 0 -17 -4 -10
-22z"/>
<path d="M4072 4306 c-76 -31 -105 -46 -89 -46 7 0 126 45 172 65 64 29 -4 12
-83 -19z"/>
<path d="M6107 4256 c-4 -10 -5 -21 -2 -24 9 -9 17 6 13 25 -3 17 -4 17 -11
-1z"/>
<path d="M4630 4150 c6 -11 8 -25 5 -30 -3 -6 2 -11 12 -12 10 0 23 -2 28 -3
6 -2 14 -3 19 -4 5 0 4 -7 -2 -14 -9 -10 -4 -13 23 -14 19 -1 35 3 35 8 0 5
-6 9 -14 9 -8 0 -16 7 -20 15 -3 8 -10 15 -16 15 -6 0 -18 6 -25 13 -49 43
-62 48 -45 17z"/>
<path d="M8500 4098 c15 -57 21 -221 11 -257 -15 -48 -8 -48 18 2 33 59 51
132 51 203 0 68 -10 84 -56 84 -32 0 -32 -1 -24 -32z"/>
<path d="M4820 4080 c0 -5 4 -10 9 -10 6 0 13 5 16 10 3 6 -1 10 -9 10 -9 0
-16 -4 -16 -10z"/>
<path d="M8415 4080 c-3 -5 -1 -10 4 -10 6 0 11 5 11 10 0 6 -2 10 -4 10 -3 0
-8 -4 -11 -10z"/>
<path d="M4698 4043 c6 -2 18 -2 25 0 6 3 1 5 -13 5 -14 0 -19 -2 -12 -5z"/>
<path d="M8360 3986 c0 -38 -6 -61 -19 -78 -21 -27 -19 -63 5 -72 8 -3 14 -14
14 -24 0 -26 41 -44 58 -26 18 19 15 52 -8 81 -21 27 -27 48 -11 39 11 -7 3
69 -11 107 -16 43 -28 32 -28 -27z"/>
<path d="M4480 3950 c0 -5 -10 -12 -22 -15 -27 -7 -62 -51 -53 -65 8 -12 16
-12 35 0 13 9 13 11 0 20 -12 8 -8 10 15 11 26 0 27 2 10 9 -16 7 -13 9 18 9
36 1 55 21 20 21 -15 0 -16 2 -3 10 13 8 12 10 -2 10 -10 0 -18 -4 -18 -10z"/>
<path d="M3275 3904 c-16 -8 -32 -18 -35 -21 -9 -10 44 9 65 23 26 19 7 18
-30 -2z"/>
<path d="M8260 3819 c0 -5 5 -7 10 -4 6 3 10 8 10 11 0 2 -4 4 -10 4 -5 0 -10
-5 -10 -11z"/>
<path d="M8136 3728 c-31 -47 -33 -55 -20 -69 8 -8 14 -21 14 -29 0 -25 42
-80 61 -80 27 0 26 9 -9 77 -10 20 -8 107 3 141 10 30 -17 8 -49 -40z"/>
<path d="M4450 3750 c0 -5 7 -10 15 -10 8 0 15 5 15 10 0 6 -7 10 -15 10 -8 0
-15 -4 -15 -10z"/>
<path d="M4280 3710 c0 -13 11 -13 30 0 12 8 11 10 -7 10 -13 0 -23 -4 -23
-10z"/>
<path d="M4432 3690 c1 -24 5 -30 23 -30 17 0 22 6 22 30 0 25 -4 30 -23 30
-19 0 -23 -5 -22 -30z"/>
<path d="M8385 3690 c-16 -7 -17 -9 -3 -9 9 -1 20 4 23 9 7 11 7 11 -20 0z"/>
<path d="M4250 3631 c0 -5 9 -11 20 -14 13 -3 20 0 20 9 0 8 -9 14 -20 14 -11
0 -20 -4 -20 -9z"/>
<path d="M4655 3560 c-3 -5 -1 -10 4 -10 6 0 11 5 11 10 0 6 -2 10 -4 10 -3 0
-8 -4 -11 -10z"/>
<path d="M4231 3481 c-10 -6 -10 -10 -1 -16 13 -8 24 -1 19 14 -3 6 -10 7 -18
2z"/>
<path d="M4658 3393 c7 -3 16 -2 19 1 4 3 -2 6 -13 5 -11 0 -14 -3 -6 -6z"/>
<path d="M7165 3340 c-3 -5 -1 -10 4 -10 6 0 11 5 11 10 0 6 -2 10 -4 10 -3 0
-8 -4 -11 -10z"/>
<path d="M4340 3310 c0 -12 8 -12 35 0 18 8 17 9 -7 9 -16 1 -28 -3 -28 -9z"/>
<path d="M4300 3290 c0 -5 5 -10 11 -10 5 0 7 5 4 10 -3 6 -8 10 -11 10 -2 0
-4 -4 -4 -10z"/>
<path d="M4730 3260 c0 -5 5 -10 10 -10 6 0 10 5 10 10 0 6 -4 10 -10 10 -5 0
-10 -4 -10 -10z"/>
<path d="M4683 3213 c-26 -5 -38 -19 -47 -53 -3 -14 -3 -19 0 -12 11 23 21 12
16 -20 l-4 -33 31 35 c17 20 30 47 31 63 0 15 -1 26 -2 26 -2 -1 -13 -4 -25
-6z"/>
<path d="M4636 3063 c-6 -14 -5 -15 5 -6 7 7 10 15 7 18 -3 3 -9 -2 -12 -12z"/>
<path d="M4616 2944 c-4 -15 -5 -29 -2 -31 9 -9 26 8 26 27 0 30 -17 32 -24 4z"/>
<path d="M4435 2890 c-3 -5 -1 -10 4 -10 6 0 11 -8 12 -17 0 -15 2 -15 9 2 5
11 9 23 9 28 1 11 -27 9 -34 -3z"/>
<path d="M7622 1980 c0 -14 2 -19 5 -12 2 6 2 18 0 25 -3 6 -5 1 -5 -13z"/>
<path d="M7626 1927 c37 -221 53 -297 84 -382 12 -33 30 -100 40 -150 10 -49
28 -108 39 -130 12 -21 21 -46 21 -55 0 -8 14 -41 31 -74 24 -45 33 -78 40
-150 18 -185 6 -344 -34 -466 -8 -25 -23 -72 -32 -105 -9 -33 -39 -110 -65
-171 -42 -93 -80 -207 -80 -236 0 -4 124 -8 275 -8 l276 0 20 48 c77 176 134
408 132 530 -1 34 1 60 5 58 14 -8 13 229 -1 295 -15 71 -66 154 -156 255 -48
53 -147 178 -214 268 -21 28 -59 89 -85 136 -37 67 -72 111 -164 203 -65 66
-118 125 -118 132 0 8 -4 16 -9 19 -4 3 -7 -5 -5 -17z"/>
<path d="M4730 1717 c0 -8 7 -17 15 -21 8 -3 15 -15 15 -26 0 -11 5 -20 10
-20 6 0 10 -8 10 -19 0 -10 12 -30 27 -45 28 -28 45 -28 22 0 -13 16 -12 16 9
5 12 -6 22 -19 22 -27 0 -8 4 -12 10 -9 6 3 7 -1 4 -10 -5 -11 0 -18 15 -22
11 -3 18 -9 15 -14 -3 -5 2 -9 10 -9 10 0 13 -6 9 -17 -5 -12 -2 -15 9 -11 9
4 22 1 29 -5 9 -8 9 -6 -1 8 -20 28 -93 119 -101 125 -3 3 -11 15 -18 28 -7
12 -16 20 -21 17 -6 -4 -7 1 -3 11 4 11 3 15 -4 11 -7 -4 -17 6 -24 22 -7 16
-17 27 -22 24 -4 -2 -14 1 -22 7 -12 10 -15 9 -15 -3z"/>
<path d="M4732 1598 c6 -18 28 -21 28 -4 0 9 -7 16 -16 16 -9 0 -14 -5 -12
-12z"/>
<path d="M4831 1541 c0 -7 -7 -11 -16 -7 -9 3 -15 0 -15 -9 0 -8 4 -15 9 -15
7 0 -4 -78 -13 -87 -1 -2 -15 -4 -29 -5 -33 -3 -36 -18 -4 -19 12 0 16 -3 9
-6 -10 -4 -10 -8 -1 -20 10 -11 10 -16 0 -22 -10 -7 -10 -12 0 -30 22 -34 32
-25 27 23 -3 24 -2 50 3 58 6 9 9 4 9 -15 0 -19 7 -30 23 -36 29 -11 47 -3 47
20 0 13 5 17 18 12 9 -4 20 -11 24 -17 5 -7 8 -4 8 7 0 9 -6 17 -14 17 -24 0
-30 22 -11 37 11 7 14 13 7 13 -6 0 -9 7 -6 15 4 10 0 15 -15 15 -12 0 -21 5
-21 11 0 5 4 7 10 4 6 -3 7 1 4 9 -3 9 -14 16 -24 16 -11 0 -20 9 -23 23 -2
12 -5 16 -6 8z m37 -96 c-3 -3 -9 2 -12 12 -6 14 -5 15 5 6 7 -7 10 -15 7 -18z
m-9 -66 c-8 -16 -14 -18 -22 -10 -9 9 -8 14 3 21 24 16 31 11 19 -11z"/>
<path d="M4900 1330 c0 -5 5 -10 10 -10 6 0 10 5 10 10 0 6 -4 10 -10 10 -5 0
-10 -4 -10 -10z"/>
<path d="M4930 1320 c0 -5 5 -10 11 -10 5 0 7 5 4 10 -3 6 -8 10 -11 10 -2 0
-4 -4 -4 -10z"/>
<path d="M4708 1313 c7 -3 16 -2 19 1 4 3 -2 6 -13 5 -11 0 -14 -3 -6 -6z"/>
<path d="M4740 1299 c0 -5 5 -7 10 -4 6 3 10 8 10 11 0 2 -4 4 -10 4 -5 0 -10
-5 -10 -11z"/>
<path d="M4755 1250 c-3 -5 -1 -10 4 -10 6 0 11 5 11 10 0 6 -2 10 -4 10 -3 0
-8 -4 -11 -10z"/>
<path d="M4870 1070 c-8 -5 -12 -12 -9 -15 4 -3 12 1 19 10 14 17 11 19 -10 5z"/>
<path d="M4836 1038 c-3 -13 -1 -27 4 -32 7 -7 10 1 10 22 0 37 -5 41 -14 10z"/>
<path d="M4702 560 c0 -14 2 -19 5 -12 2 6 2 18 0 25 -3 6 -5 1 -5 -13z"/>
<path d="M4487 425 c-7 -18 9 -21 16 -2 4 9 8 8 17 -3 10 -13 11 -13 7 0 -5
21 -33 24 -40 5z"/>
<path d="M7318 418 c-9 -23 3 -68 18 -68 11 0 13 7 8 28 -10 43 -20 57 -26 40z"/>
<path d="M4560 390 c0 -5 5 -10 11 -10 5 0 7 5 4 10 -3 6 -8 10 -11 10 -2 0
-4 -4 -4 -10z"/>
<path d="M7420 370 c0 -11 5 -20 10 -20 6 0 10 9 10 20 0 11 -4 20 -10 20 -5
0 -10 -9 -10 -20z"/>
<path d="M4370 356 c0 -2 9 -6 20 -9 11 -3 18 -1 14 4 -5 9 -34 13 -34 5z"/>
<path d="M7140 349 c0 -6 -9 -8 -20 -4 -26 8 -26 -5 0 -33 29 -31 41 -27 38
13 -1 19 -6 35 -10 35 -4 0 -8 -5 -8 -11z"/>
<path d="M7235 316 c2 -44 -13 -65 -36 -51 -5 4 -6 0 -4 -7 3 -8 22 -14 46
-14 29 -1 39 2 35 11 -2 7 4 15 15 18 13 3 19 14 19 31 0 21 -5 26 -24 26 -13
0 -26 7 -30 15 -11 30 -23 14 -21 -29z"/>
<path d="M4353 320 c-13 -5 -23 -17 -23 -27 1 -17 1 -17 14 0 7 9 18 17 25 17
6 0 11 5 11 10 0 6 -1 10 -2 9 -2 0 -13 -4 -25 -9z"/>
<path d="M4420 325 c0 -24 15 -33 33 -20 10 7 14 16 8 19 -5 3 -12 0 -14 -6
-4 -10 -8 -9 -16 2 -6 8 -11 11 -11 5z"/>
<path d="M4516 279 c-11 -10 -16 -22 -13 -26 4 -3 7 -1 7 6 0 8 6 11 17 7 10
-4 14 -4 10 0 -4 4 -2 13 4 21 17 20 -3 14 -25 -8z"/>
<path d="M7160 190 c-12 -7 -12 -12 -2 -22 9 -9 15 -9 24 0 16 16 -2 34 -22
22z"/>
<path d="M7405 180 c3 -5 8 -10 11 -10 2 0 4 5 4 10 0 6 -5 10 -11 10 -5 0 -7
-4 -4 -10z"/>
<path d="M7500 140 c-1 -14 -3 -35 -6 -47 -3 -16 1 -23 11 -23 17 0 19 41 5
75 -8 18 -9 18 -10 -5z"/>
<path d="M7280 120 c0 -6 -5 -8 -11 -4 -8 4 -7 0 1 -15 6 -12 15 -19 21 -16
12 8 12 32 -1 40 -5 3 -10 1 -10 -5z"/>
<path d="M4413 93 c-24 -16 -32 -58 -11 -51 14 5 52 68 40 67 -4 0 -17 -7 -29
-16z"/>
<path d="M7337 103 c-3 -5 1 -17 9 -28 14 -18 14 -18 14 2 0 23 -15 39 -23 26z"/>
<path d="M7220 90 c0 -5 7 -10 15 -10 8 0 15 5 15 10 0 6 -7 10 -15 10 -8 0
-15 -4 -15 -10z"/>
<path d="M4310 81 c0 -6 4 -13 10 -16 6 -3 7 1 4 9 -7 18 -14 21 -14 7z"/>
<path d="M7444 38 c3 -13 6 -26 6 -30 0 -12 30 -9 30 2 0 6 -4 10 -10 10 -5 0
-10 9 -10 20 0 11 -5 20 -11 20 -7 0 -9 -9 -5 -22z"/>
<path d="M4303 33 c-15 -5 -18 -33 -4 -33 5 0 11 9 14 20 3 11 4 20 4 19 -1 0
-8 -3 -14 -6z"/>
<path d="M7120 15 c0 -8 7 -15 15 -15 9 0 12 6 9 15 -8 19 -24 19 -24 0z"/>
</g>
</svg>
